<svg width="189" height="189" viewBox="0 0 189 189" fill="none" xmlns="http://www.w3.org/2000/svg">
<mask id="mask0_538_45295" style="mask-type:alpha" maskUnits="userSpaceOnUse" x="0" y="0" width="189" height="189">
<rect width="189" height="189" fill="#B6602F"/>
</mask>
<g mask="url(#mask0_538_45295)">
<rect width="189" height="189" fill="#F6F9FC"/>
</g>
<g clip-path="url(#clip0_538_45295)">
<path d="M95.4349 54.5532C97.2619 54.5532 98.9318 55.5865 99.747 57.2215L114.737 87.2005L130.527 118.793C131.275 120.288 131.196 122.064 130.318 123.487C129.674 124.53 128.667 125.274 127.517 125.597L127.199 125.674C126.986 125.719 126.768 125.749 126.548 125.764L126.215 125.776L95.4349 119.655L76.1333 87.2005L91.1228 57.2215C91.938 55.5865 93.6079 54.5532 95.4349 54.5532Z" fill="#FFBB00"/>
<path d="M95.4349 54.5532C97.2619 54.5532 98.9317 55.5865 99.747 57.2215L114.736 87.2005L95.4349 119.655L64.6547 125.776C62.9828 125.776 61.4305 124.909 60.5521 123.487C59.6736 122.064 59.5944 120.288 60.3425 118.793L76.1333 87.2005L91.1227 57.2215C91.938 55.5865 93.6078 54.5532 95.4349 54.5532Z" fill="url(#paint0_linear_538_45295)"/>
<path d="M95.4349 54.5532C97.2619 54.5532 98.9318 55.5865 99.747 57.2215L114.737 87.2005L95.4349 119.655L76.1333 87.2005L91.1228 57.2215C91.8871 55.6887 93.4025 54.6847 95.0944 54.5652L95.4349 54.5532Z" fill="url(#paint1_linear_538_45295)"/>
</g>
<defs>
<linearGradient id="paint0_linear_538_45295" x1="87.2537" y1="86.862" x2="87.0939" y2="125.776" gradientUnits="userSpaceOnUse">
<stop stop-color="#FFD748"/>
<stop offset="0.5362" stop-color="#FFCD48"/>
<stop offset="1" stop-color="#FFCB48"/>
</linearGradient>
<linearGradient id="paint1_linear_538_45295" x1="95.4395" y1="117.372" x2="95.4395" y2="81.3903" gradientUnits="userSpaceOnUse">
<stop stop-color="#FFAD00"/>
<stop offset="1" stop-color="#FF7600"/>
</linearGradient>
<clipPath id="clip0_538_45295">
<rect width="73" height="73" fill="white" transform="translate(58 54)"/>
</clipPath>
</defs>
</svg>
